<svg width="234" height="234" viewBox="0 0 234 234" version="1.1" xmlns="http://www.w3.org/2000/svg" xmlns:xlink="http://www.w3.org/1999/xlink">
<title>&#208;&#155;&#208;&#190;&#208;&#179;&#208;&#190;</title>
<desc>Created using Figma</desc>
<g id="Canvas" transform="translate(427 788)">
<g id="&#208;&#155;&#208;&#190;&#208;&#179;&#208;&#190;" filter="url(#filter0_d)">
<use xlink:href="#path0_fill" transform="translate(-423 -788)" fill="#F2F2F2"/>
</g>
</g>
<defs>
<filter id="filter0_d" filterUnits="userSpaceOnUse" x="-427" y="-788" width="234" height="234" color-interpolation-filters="sRGB">
<feFlood flood-opacity="0" result="BackgroundImageFix"/>
<feColorMatrix in="SourceAlpha" type="matrix" values="0 0 0 0 0 0 0 0 0 0 0 0 0 0 0 0 0 0 255 0"/>
<feOffset dx="0" dy="4"/>
<feGaussianBlur stdDeviation="2"/>
<feColorMatrix type="matrix" values="0 0 0 0 0 0 0 0 0 0 0 0 0 0 0 0 0 0 0.25 0"/>
<feBlend mode="normal" in2="BackgroundImageFix" result="effect1_dropShadow"/>
<feBlend mode="normal" in="SourceGraphic" in2="effect1_dropShadow" result="shape"/>
</filter>
<path id="path0_fill" d="M 69.6087 21.5727L 69.6087 22.0864C 69.6087 22.6 70.1198 23.6273 70.1198 24.1409C 73.1863 30.8182 75.7417 38.0091 78.8082 44.6864C 79.8304 47.2545 81.8747 49.3091 83.9191 50.3364C 84.9412 51.3636 85.9634 51.3636 86.9855 51.3636C 87.4966 51.3636 87.4966 51.3636 88.0077 51.3636C 88.5188 51.3636 88.5188 51.3636 89.0299 51.3636C 89.541 51.3636 90.052 50.85 90.5631 50.85C 104.873 44.1727 121.228 44.1727 135.027 50.85C 135.538 50.85 136.049 51.3636 136.561 51.3636C 137.072 51.3636 137.072 51.3636 137.583 51.3636C 138.094 51.3636 138.094 51.3636 138.605 51.3636C 139.627 51.3636 140.649 50.85 141.671 50.3364C 143.716 49.3091 145.76 47.2545 146.782 44.6864C 149.338 37.4955 152.404 30.8182 155.471 24.1409C 155.982 23.6273 155.982 22.6 155.982 22.0864L 155.982 21.5727L 155.982 21.0591C 155.982 20.5455 155.982 20.0318 155.982 20.0318C 155.982 18.4909 155.471 16.95 154.96 15.4091C 153.426 12.3273 151.382 9.75909 147.804 8.21818C 136.561 2.56818 124.295 0 112.54 0C 100.785 0 88.5188 2.56818 77.7861 7.70455C 74.2085 9.24545 71.6531 12.3273 70.6309 15.4091C 70.1198 16.95 69.6087 18.4909 69.6087 20.0318C 69.6087 20.5455 69.6087 21.0591 69.6087 21.0591L 69.6087 21.5727ZM 155.471 204.427L 155.471 203.914C 155.471 203.4 154.96 202.373 154.96 201.859C 151.893 195.182 149.338 187.991 146.271 181.314C 145.249 178.745 143.205 176.691 141.16 175.664C 140.138 174.636 139.116 174.636 138.094 174.636C 137.583 174.636 137.583 174.636 137.072 174.636C 136.561 174.636 136.561 174.636 136.049 174.636C 135.538 174.636 135.027 175.15 134.516 175.15C 120.206 181.827 103.851 181.827 90.052 175.15C 89.541 175.15 89.0299 174.636 88.5188 174.636C 88.0077 174.636 88.0077 174.636 87.4966 174.636C 86.9855 174.636 86.9855 174.636 86.4745 174.636C 85.4523 174.636 84.4301 175.15 83.408 175.664C 81.3636 176.691 79.3193 178.745 78.2971 181.314C 75.7417 188.505 72.6752 195.182 69.6087 201.859C 69.0977 202.373 69.0977 203.4 69.0977 203.914L 69.0977 204.427L 69.0977 204.941C 69.0977 205.455 69.0977 205.968 69.0977 205.968C 69.0977 207.509 69.6087 209.05 70.1198 210.591C 71.6531 213.673 73.6974 216.241 77.275 218.295C 88.5188 223.432 100.274 226 112.029 226C 123.783 226 136.049 223.432 146.782 218.295C 150.36 216.755 152.915 213.673 153.937 210.591C 154.448 209.05 154.96 207.509 154.96 205.968C 154.96 205.455 154.96 204.941 154.96 204.941C 155.471 204.941 155.471 204.427 155.471 204.427ZM 156.493 58.0409L 157.004 58.5545L 157.515 59.0682C 158.026 59.5818 158.537 60.0955 159.048 60.0955C 171.825 68.8273 180.003 83.2091 181.536 98.6182C 181.536 99.1318 181.536 99.6455 182.047 100.159C 182.047 100.673 182.047 100.673 182.558 101.186C 182.558 101.186 182.558 101.7 183.069 101.7C 183.58 102.727 184.602 103.241 185.113 104.268C 187.158 105.295 189.713 106.323 192.78 105.809C 199.935 104.782 207.601 103.755 215.267 102.727C 215.778 102.727 216.801 102.727 217.312 102.214L 217.823 102.214L 218.334 102.214C 218.845 102.214 218.845 101.7 219.356 101.7C 220.889 100.673 221.911 99.6455 222.933 98.6182C 224.978 96.05 226 92.4545 226 88.8591C 224.978 76.5318 221.4 65.2318 215.267 54.9591C 209.134 44.6864 200.957 35.4409 191.246 28.7636C 188.18 26.7091 184.602 25.6818 181.025 26.1955C 179.491 26.1955 177.958 26.7091 176.425 27.7364C 175.914 27.7364 175.914 28.25 175.403 28.25C 175.403 28.25 174.892 28.25 174.892 28.7636C 174.892 28.7636 174.381 28.7636 174.381 29.2773C 173.87 29.7909 173.358 30.3045 172.847 30.8182C 168.248 36.9818 163.648 42.6318 159.048 48.2818C 157.004 50.85 156.493 53.4182 156.493 55.4727C 155.982 55.9864 155.982 57.0136 156.493 58.0409ZM 6.74559 101.7C 7.25667 101.7 7.25667 102.214 7.76775 102.214L 8.27884 102.214L 8.78992 102.214C 9.301 102.214 10.3232 102.727 10.8342 102.727C 18.5005 103.755 25.6556 104.782 33.3219 105.809C 36.3884 106.323 38.9438 105.809 40.9881 104.268C 42.0103 103.755 42.5214 102.727 43.0324 101.7L 43.5435 101.186C 43.5435 101.186 43.5435 100.673 44.0546 100.159C 44.0546 99.6455 44.5657 99.1318 44.5657 98.6182C 46.0989 82.6955 53.7652 68.8273 67.0533 60.0955C 67.5644 59.5818 68.0755 59.5818 68.5866 59.0682L 69.0977 58.5545L 69.6087 58.0409C 70.1198 57.0136 70.6309 55.9864 70.6309 54.9591C 70.6309 52.9045 70.1198 50.3364 68.0755 47.7682C 63.4757 42.1182 58.876 35.9545 54.2763 30.3045C 53.7652 29.7909 53.2541 29.2773 52.743 28.7636C 52.743 28.7636 52.2319 28.7636 52.2319 28.25C 52.2319 28.25 51.7209 28.25 51.7209 27.7364C 51.2098 27.7364 51.2098 27.2227 50.6987 27.2227C 48.1433 26.1955 46.61 25.6818 45.0768 25.6818C 42.0103 25.1682 37.9216 26.1955 34.8551 28.25C 25.1446 35.4409 16.4562 44.1727 10.8342 54.4455C 4.70126 64.7182 1.12368 76.5318 0.101516 88.3455C -0.409566 91.9409 1.12368 95.5364 3.16801 98.1045C 4.19018 100.159 5.21234 101.186 6.74559 101.7ZM 218.334 124.3C 217.823 124.3 217.823 123.786 217.312 123.786L 216.801 123.786L 216.289 123.786C 215.778 123.786 214.756 123.273 214.245 123.273C 206.579 122.245 199.424 121.218 191.757 120.191C 188.691 119.677 186.136 120.191 184.091 121.732C 183.069 122.245 182.558 123.273 182.047 124.3L 181.536 124.814C 181.536 124.814 181.536 125.327 181.025 125.841C 181.025 126.355 180.514 126.868 180.514 127.382C 178.98 143.305 171.314 157.173 158.026 165.905C 157.515 166.418 157.004 166.418 156.493 166.932L 155.982 167.445L 155.471 167.959C 154.96 168.986 154.448 170.014 154.448 171.041C 154.448 173.095 154.96 175.664 157.004 178.232C 161.604 183.882 166.203 190.045 170.803 195.695C 171.314 196.209 171.825 196.723 172.336 197.236C 172.336 197.236 172.847 197.236 172.847 197.75C 172.847 197.75 173.359 197.75 173.359 198.264C 173.87 198.264 173.87 198.777 174.381 198.777C 175.914 199.291 177.447 199.805 178.98 200.318C 182.047 200.832 186.136 199.805 189.202 197.75C 198.913 190.559 207.601 181.827 213.223 171.555C 219.356 161.282 222.933 149.468 223.956 137.655C 224.467 134.059 222.934 130.464 220.889 127.895C 220.889 125.841 219.867 124.814 218.334 124.3ZM 68.5866 167.959L 68.0755 167.445L 67.5644 166.932C 67.0533 166.418 66.5422 165.905 66.0312 165.905C 53.2541 157.173 45.0768 142.791 43.5435 127.382C 43.5435 126.868 43.5435 126.355 43.0324 125.841C 43.0324 125.327 43.0325 125.327 42.5214 124.814C 42.5214 124.814 42.5214 124.3 42.0103 124.3C 41.4992 123.273 40.477 122.759 39.966 121.732C 37.9216 120.705 35.3662 119.677 32.2997 120.191C 25.1446 121.218 17.4783 122.245 9.81208 123.273C 9.301 123.273 8.27884 123.273 7.76775 123.786L 7.25667 123.786L 6.74559 123.786C 6.23451 123.786 6.23451 124.3 5.72342 124.3C 4.19018 125.327 3.16801 126.355 2.14585 127.382C 1.12368 129.95 -0.409566 133.545 0.101516 137.141C 1.12368 149.468 4.70126 160.768 10.8342 171.041C 16.9672 181.314 25.1446 190.559 34.8551 197.236C 37.9216 199.291 41.4992 200.318 45.0768 199.805C 46.61 199.805 48.1433 199.291 49.6765 198.264C 50.1876 198.264 50.1876 197.75 50.6987 197.75C 50.6987 197.75 51.2098 197.75 51.2098 197.236C 51.2098 197.236 51.7209 197.236 51.7209 196.723C 52.2319 196.209 52.743 195.695 53.2541 195.182C 57.8538 189.018 62.4536 183.368 67.0533 177.718C 69.0977 175.15 69.6087 172.582 69.6087 170.527C 69.0977 170.014 69.0977 168.986 68.5866 167.959Z"/>
</defs>
</svg>
