<svg width="14px" height="16px" viewBox="0 0 14 16" version="1.1" xmlns="http://www.w3.org/2000/svg" xmlns:xlink="http://www.w3.org/1999/xlink">
    <path fill-rule="evenodd" d="M1.40172127,8.70597656 L2.30653893,8.17578125 L2.24354359,7.82414063 C2.14603542,7.27945313 2.14603542,6.72136719 2.24354359,6.17667969 L2.30653893,5.82421875 L1.40199048,5.29375 C1.17076529,5.15776953 1.09150961,4.85737109 1.22484974,4.6221875 L1.91591399,3.40703125 C2.0496041,3.17182031 2.34562834,3.09104687 2.57736504,3.2265625 L3.48406717,3.75839844 L3.75327802,3.52625 C4.16600517,3.16722656 4.63989702,2.8879375 5.15155916,2.70210938 L5.47622744,2.58207031 L5.47622744,1.52140625 C5.47622744,1.24796875 5.70828719,1.01171875 5.96969092,1.01171875 L7.3515502,1.01171875 C7.61322314,1.01171875 7.84528289,1.24660156 7.84528289,1.52140625 L7.84528289,2.58207031 L8.17129723,2.70238281 C8.68341702,2.88829297 9.15782038,3.16758203 9.57119363,3.52652344 L9.83798158,3.75839844 L10.7452221,3.2265625 C10.9766358,3.09151172 11.2720139,3.17195703 11.4058656,3.40648438 L12.0966606,4.62191406 C12.2300007,4.85709766 12.150745,5.15749609 11.9195199,5.29347656 L11.0149714,5.82421875 L11.0779667,6.17585938 C11.1755018,6.72054688 11.1755018,7.27863281 11.0779667,7.82332031 L11.0149714,8.17578125 L11.9195199,8.70625 C12.150745,8.84223047 12.2300007,9.14262891 12.0966606,9.3778125 L11.4055963,10.5929688 C11.2719062,10.8281797 10.975882,10.9089531 10.7441453,10.7734375 L9.83744316,10.2416016 L9.56823231,10.47375 C9.15550517,10.8327734 8.68161331,11.1120898 8.16995118,11.2978906 L7.84528289,11.4179297 L7.84528289,12.4785938 C7.84528289,12.7520312 7.61322314,12.9882812 7.3515502,12.9882812 L5.96969092,12.9882812 C5.70801798,12.9882812 5.47622744,12.7533984 5.47622744,12.4785938 L5.47622744,11.4179297 L5.1502131,11.2976172 C4.63809331,11.111707 4.16368996,10.832418 3.7503167,10.4734766 L3.48352875,10.2416016 L2.5762882,10.7734375 C2.34482071,10.9086797 2.0492272,10.828207 1.91537557,10.5935156 L1.22458053,9.37753906 C1.0911058,9.14221875 1.17049607,8.84160156 1.40199048,8.70570312 L1.40172127,8.70597656 Z M0.211540117,8.74179688 C0.312359579,8.35553906 0.56108348,8.02629297 0.90233515,7.82742187 L1.20815867,7.64804688 C1.15897385,7.21754688 1.15897385,6.78272656 1.20815867,6.35222656 L0.90233515,6.17285156 C0.193852964,5.75624219 -0.0489213779,4.83579687 0.359606082,4.11523438 L1.05040112,2.89980469 C1.05072417,2.89923047 1.05104722,2.89865625 1.0513972,2.89808203 C1.46067845,2.17902344 2.3663845,1.93309375 3.07432826,2.34882812 L3.37880573,2.52847656 C3.72183419,2.27251172 4.09108379,2.05496484 4.48014731,1.87960938 L4.48014731,1.52140625 C4.48014731,0.68359375 5.15317442,0 5.96969092,0 L7.3515502,0 C8.16833591,0 8.84136303,0.68359375 8.84136303,1.52140625 L8.84136303,1.87933594 C9.23050731,2.05458203 9.59983767,2.27204687 9.94297381,2.52792969 L10.2455668,2.34828125 C10.9549105,1.93358594 11.8608857,2.18030859 12.27084,2.89980469 L12.961635,4.11523438 C13.3701356,4.83571484 13.1273343,5.75607813 12.418906,6.17257813 L12.1130825,6.35195313 C12.1622673,6.78245312 12.1622673,7.21727344 12.1130825,7.64777344 L12.418906,7.82714844 C13.1274151,8.24356641 13.3704317,9.16384766 12.9621735,9.88449219 L12.2716476,11.0999219 C11.8619895,11.8195 10.9559873,12.066168 10.2469129,11.6511719 L9.9427046,11.4715234 C9.59967614,11.7274883 9.23042654,11.9450352 8.84136303,12.1203906 L8.84136303,12.4785937 C8.84136303,13.3164062 8.16833591,14 7.3515502,14 L5.96969092,14 C5.15317442,14 4.48014731,13.3164062 4.48014731,12.4788672 L4.48014731,12.1206641 C4.09100303,11.9453906 3.72167267,11.7279531 3.37853652,11.4720703 L3.07567432,11.6517188 C2.36630374,12.06625 1.46046308,11.8195547 1.05040112,11.1001953 L0.359606082,9.88476562 C0.161924557,9.53916797 0.10862081,9.12758984 0.211540117,8.74179688 Z M6.66075517,4.99378906 C7.75178597,4.99378906 8.63622436,5.89211328 8.63622436,7.00027344 C8.63622436,8.10843359 7.75178597,9.00675781 6.66075517,9.00675781 C5.56972437,9.00675781 4.68528597,8.10843359 4.68528597,7.00027344 L4.68528597,7 C4.6864705,5.89235937 5.57023587,4.99471875 6.66075517,4.99351562 L6.66075517,4.99378906 Z M6.66075517,10.0209375 C8.30337207,10.0209375 9.6349966,8.66840625 9.6349966,7 C9.6349966,5.33159375 8.30337207,3.9790625 6.66075517,3.9790625 C5.01813826,3.9790625 3.68651373,5.33159375 3.68651373,7 C3.68829052,8.66766797 5.01886513,10.0191328 6.66075517,10.0209375 Z"></path>
</svg>