<svg width="14px" height="15px" viewBox="0 0 14 15" version="1.1" xmlns="http://www.w3.org/2000/svg" xmlns:xlink="http://www.w3.org/1999/xlink">
    <path fill-rule="evenodd" fill="#FE4D4A" d="M10.5769507,11.9133297 L10.5769507,11.9611105 C10.5769507,12.3433563 10.2673019,12.6459676 9.89246394,12.6459676 L4.12321808,12.6459676 C3.74838007,12.6459676 3.43873129,12.3433563 3.43873129,11.9611105 L2.72164988,3.37650521 L11.3103294,3.37650521 L10.5769507,11.9133297 Z M5.9159216,2.00679083 L8.08346312,2.00679083 L8.08346312,1.17859144 L5.9159216,1.17859144 L5.9159216,2.00679083 Z M13.3311952,2.00679083 C13.7060332,2.00679083 14.015682,2.30940215 13.9993847,2.70757494 C13.9993847,3.08982081 13.7060332,3.39243213 13.3148979,3.39243213 L12.679303,3.39243213 L11.929627,12.0088912 C11.9133297,13.123775 11.0006807,14.015682 9.85986933,14.015682 L4.12321808,14.015682 C2.98240676,14.015682 2.06975769,13.123775 2.03716308,11.9929643 L1.32008168,3.3605783 L0.684486796,3.3605783 C0.309648789,3.3605783 0,3.05796699 0,2.67572111 C0,2.29347524 0.293351484,1.99086392 0.684486796,1.99086392 L4.546948,1.99086392 L4.546948,0.987468506 C4.546948,0.430026607 5.05216445,0 5.70405664,0 L8.31162538,0 C8.96351757,0 9.46873402,0.430026607 9.46873402,1.00339542 L9.46873402,2.00679083 L13.3311952,2.00679083 Z M5.2314348,4.95326944 L5.19884019,4.95326944 C4.82400218,4.96919635 4.5306507,5.27180767 4.5306507,5.65405354 L4.74251566,10.2250771 C4.74251566,10.5913961 5.05216445,10.8780805 5.42700246,10.8780805 L5.45959707,10.8780805 C5.83443507,10.8621536 6.12778656,10.5595422 6.12778656,10.1772964 L5.9159216,5.5903459 C5.89962429,5.23995385 5.5899755,4.95326944 5.2314348,4.95326944 Z M8.78424722,4.95326944 C8.42570652,4.95326944 8.11605773,5.23995385 8.09976042,5.60627281 L7.87159816,10.1932233 C7.87159816,10.5754692 8.16494964,10.8780805 8.53978765,10.8940074 L8.57238226,10.8940074 C8.93092296,10.8940074 9.24057175,10.607323 9.25686905,10.241004 L9.46873402,5.66998045 C9.48503132,5.47885752 9.4198421,5.30366149 9.28946366,5.1762462 C9.15908523,5.01697709 8.99611218,4.95326944 8.78424722,4.95326944 Z" id="Combined-Shape"></path>
</svg>